<svg xmlns="http://www.w3.org/2000/svg" width="27" height="34" fill="none" viewBox="0 0 27 34">
    <path fill="#363442" stroke="#E2E2E6" d="M16.708 5.948H1V32.64h19.792V9.897l-4.084-3.95z"/>
    <path fill="#363442" stroke="#E2E2E6" stroke-linejoin="round" d="M16.885 9.854V5.947l3.906 3.907h-3.906z"/>
    <path fill="#363442" stroke="#E2E2E6" d="M19.312 3.344H3.604v26.693h19.792V7.294l-4.084-3.95z"/>
    <path fill="#363442" stroke="#E2E2E6" stroke-linejoin="round" d="M19.49 7.25V3.344l3.905 3.906H19.49z"/>
    <path fill="#836946" stroke="#E2E2E6" d="M21.916 1H6.21v26.693H26V4.95L21.916 1z"/>
    <path fill="#E2E2E6" stroke="#E2E2E6" stroke-linejoin="round" d="M22.094 4.906V1L26 4.906h-3.906z"/>
    <path fill="#E2E2E6" fill-rule="evenodd" d="M15.996 9l3.403 1.123c.114.037.179.169.145.294-.035.125-.155.195-.27.158l-3.278-1.082-3.268 1.082c-.114.037-.235-.033-.27-.158-.034-.125.03-.257.145-.294L15.996 9zm-4.546 2.607c-.04.715-.034 1.863.26 3.139.422 1.842 1.44 3.954 3.777 5.429l-2.323-4.918-1.714-3.65zm5.057 8.567c2.337-1.475 3.356-3.586 3.78-5.428.295-1.275.304-2.422.264-3.137l-1.713 3.649-2.331 4.916zm-.51.05l2.294-4.838h-4.58l2.286 4.837zm-2.51-5.31l-1.97-4.2c-.043-.091-.13-.14-.216-.133-.093.008-.184.082-.203.201-.036.226-.288 1.986.192 4.079.483 2.101 1.705 4.54 4.612 6.088l.094.051.095-.05c2.906-1.55 4.131-3.987 4.616-6.089.482-2.093.232-3.852.197-4.078-.02-.12-.11-.194-.203-.202-.086-.007-.173.042-.216.133l-1.97 4.2h-5.027z" clip-rule="evenodd"/>
</svg>
