<svg width="20" height="15" viewBox="0 0 20 15" fill="none" xmlns="http://www.w3.org/2000/svg">
<path opacity="0.8" fill-rule="evenodd" clip-rule="evenodd" d="M14.7603 14.3719C18.5445 14.2521 20 11.7713 20 11.7713C20 6.26211 17.5342 1.79661 17.5342 1.79661C15.0685 -0.051185 12.7226 0.000142178 12.7226 0.000142178L12.4829 0.273889C15.3938 1.16357 16.7466 2.44676 16.7466 2.44676C14.9658 1.47153 13.2192 0.992476 11.5925 0.804274C10.3596 0.667401 9.17808 0.701619 8.13356 0.838492L7.84247 0.872711C7.24315 0.924039 5.78767 1.14646 3.95548 1.95059C3.32192 2.24145 2.9452 2.44676 2.9452 2.44676C2.9452 2.44676 4.36644 1.09513 7.44863 0.205453L7.2774 0.000142178C7.2774 0.000142178 4.93151 -0.051185 2.46575 1.79661C2.46575 1.79661 0 6.26211 0 11.7713C0 11.7713 1.43836 14.2521 5.2226 14.3719C5.2226 14.3719 5.85616 13.602 6.36986 12.9518C4.19521 12.3017 3.37329 10.9329 3.37329 10.9329L3.85274 11.2238L3.92123 11.2751L3.9883 11.3136L4.00828 11.3222L4.07534 11.3606C4.50342 11.6002 4.93151 11.7884 5.32534 11.9424C6.0274 12.2161 6.86644 12.4899 7.84247 12.6781C9.12671 12.9176 10.6336 13.0031 12.2774 12.6952C13.0822 12.5583 13.9041 12.3188 14.7603 11.9595C15.3596 11.737 16.0274 11.412 16.7295 10.95C16.7295 10.95 15.8733 12.353 13.6301 12.986C14.1438 13.6362 14.7603 14.3719 14.7603 14.3719ZM6.79795 6.38187C5.82192 6.38187 5.05137 7.23733 5.05137 8.28099C5.05137 9.32465 5.83904 10.1801 6.79795 10.1801C7.77397 10.1801 8.54452 9.32465 8.54452 8.28099C8.56164 7.23733 7.77397 6.38187 6.79795 6.38187ZM13.0479 6.38187C12.0719 6.38187 11.3014 7.23733 11.3014 8.28099C11.3014 9.32465 12.089 10.1801 13.0479 10.1801C14.024 10.1801 14.7945 9.32465 14.7945 8.28099C14.7945 7.23733 14.024 6.38187 13.0479 6.38187Z" fill="white"/>
</svg>
