<svg width="22" height="13" viewBox="0 0 22 13" fill="none" xmlns="http://www.w3.org/2000/svg">
<g opacity="0.8">
<path d="M6.20454 12.4944C9.63137 12.4944 12.4093 9.69732 12.4093 6.2471C12.4093 2.79688 9.63116 0 6.20454 0C2.77792 0 0 2.79604 0 6.2471C0 9.69816 2.77771 12.4944 6.20454 12.4944Z" fill="white"/>
<path d="M16.1136 12.1278C17.8269 12.1278 19.216 9.49506 19.216 6.2471C19.216 2.99998 17.8269 0.366386 16.1136 0.366386C14.4003 0.366386 13.0112 2.99998 13.0112 6.2471C13.0112 9.49422 14.4003 12.1278 16.1136 12.1278Z" fill="white"/>
<path d="M20.9089 11.516C21.5114 11.516 22 9.15712 22 6.2471C22 3.33729 21.5118 0.978222 20.9091 0.978222C20.3063 0.978222 19.8177 3.33792 19.8177 6.2471C19.8177 9.15627 20.3063 11.516 20.9089 11.516Z" fill="white"/>
</g>
</svg>
