<svg xmlns="http://www.w3.org/2000/svg" width="35" height="39" fill="none" viewBox="0 0 35 39">
    <path stroke="#D9D8DD" stroke-dasharray=".5 .5" d="M17.5 14.673V5.521m4.67 11.767l7.845-4.39m-24.937 0l7.939 4.39m-7.939 9.9l7.939-4.39M17.5 34.474v-9.34m4.67-2.334l7.845 4.39"/>
    <path stroke="#ACABB1" stroke-linejoin="round" stroke-width=".5" d="M30.108 12.805L17.556 5.521 4.892 12.805v14.458l12.664 7.397 12.552-7.397V12.805z"/>
    <path stroke="#BB7E1D" d="M22.137 17.335l-4.586-2.662-4.628 2.662v5.282l4.628 2.703 4.586-2.703v-5.282z"/>
    <g fill="#E1AA4C" opacity=".5">
        <path fill-opacity=".5" d="M22.178 17.335l-4.627-2.662-4.628 2.662 4.628 2.661 4.627-2.661z"/>
        <path fill-opacity=".7" d="M22.178 22.644v-5.35l-4.586 2.675v5.35l4.586-2.675z"/>
        <path fill-opacity=".9" d="M12.923 22.644l4.669 2.676v-5.351l-4.669-2.675v5.35z"/>
    </g>
    <path fill="#BB7E1D" fill-rule="evenodd" d="M19.837 19.932l-.683.637c-.023.021-.036.057-.03.08.007.022.031.023.054.002l.658-.614.65-.151c.022-.005.046-.034.053-.065.008-.03-.005-.052-.027-.046l-.675.157zm.9.025c.007.148.002.394-.06.7-.09.444-.3 1.014-.77 1.602l.478-1.322.352-.98zm-1.034 2.42c-.463-.041-.66-.373-.74-.717-.054-.238-.053-.481-.043-.639l.331.58.452.777zm.102-.048l-.445-.765.915-.536-.47 1.3zm.516-1.428l.406-1.127c.008-.024.026-.045.043-.053.019-.01.037-.004.04.019.007.044.052.39-.05.893-.103.506-.354 1.17-.939 1.84l-.019.022h-.018c-.576.009-.814-.369-.904-.761-.09-.39-.036-.796-.028-.848.004-.028.023-.054.041-.067.017-.011.035-.011.043.003l.381.667 1.004-.588z" clip-rule="evenodd"/>
    <path fill="#F5F5F6" d="M8.425 10.159L4.712 8.042 1 10.159l3.712 2.116 3.713-2.116z"/>
    <path fill="#E2E2E6" d="M8.425 14.446V10.19l-3.713 2.128v4.255l3.713-2.127z"/>
    <path fill="#D9D8DD" d="M1 14.446l3.712 2.127v-4.255L1 10.19v4.256z"/>
    <path stroke="#3F3D56" d="M8.327 10.288L4.68 8.171 1 10.288v4.201l3.68 2.15 3.647-2.15v-4.2z"/>
    <path fill="#F5F5F6" d="M20.8 3.559l-3.713-2.117-3.712 2.117 3.712 2.116L20.8 3.56z"/>
    <path fill="#E2E2E6" d="M20.8 7.846V3.59l-3.713 2.128v4.255L20.8 7.846z"/>
    <path fill="#D9D8DD" d="M13.375 7.846l3.712 2.127V5.718L13.375 3.59v4.256z"/>
    <path stroke="#3F3D56" d="M20.702 3.688l-3.647-2.117-3.68 2.117v4.201l3.68 2.15 3.647-2.15V3.688z"/>
    <path fill="#F5F5F6" d="M20.8 31.609l-3.713-2.117-3.712 2.117 3.712 2.117 3.713-2.117z"/>
    <path fill="#E2E2E6" d="M20.8 35.896V31.64l-3.713 2.127v4.255l3.713-2.127z"/>
    <path fill="#D9D8DD" d="M13.375 35.896l3.712 2.127v-4.255l-3.712-2.127v4.255z"/>
    <path stroke="#3F3D56" d="M20.702 31.738l-3.647-2.117-3.68 2.117v4.2l3.68 2.15 3.647-2.15v-4.2z"/>
    <path fill="#F5F5F6" d="M8.425 25.008l-3.713-2.116L1 25.008l3.712 2.117 3.713-2.117z"/>
    <path fill="#E2E2E6" d="M8.425 29.295V25.04l-3.713 2.127v4.255l3.713-2.127z"/>
    <path fill="#D9D8DD" d="M1 29.295l3.712 2.127v-4.255L1 25.04v4.255z"/>
    <path stroke="#3F3D56" d="M8.327 25.137L4.68 23.02 1 25.137v4.201l3.68 2.15 3.647-2.15v-4.2z"/>
    <path fill="#F5F5F6" d="M34 10.159l-3.713-2.117-3.712 2.117 3.712 2.116L34 10.16z"/>
    <path fill="#E2E2E6" d="M34 14.446V10.19l-3.713 2.128v4.255L34 14.446z"/>
    <path fill="#D9D8DD" d="M26.575 14.446l3.712 2.127v-4.255l-3.712-2.128v4.256z"/>
    <path stroke="#3F3D56" d="M33.902 10.288l-3.647-2.117-3.68 2.117v4.201l3.68 2.15 3.647-2.15v-4.2z"/>
    <path fill="#F5F5F6" d="M34 25.008l-3.713-2.116-3.712 2.116 3.712 2.117L34 25.008z"/>
    <path fill="#E2E2E6" d="M34 29.295V25.04l-3.713 2.127v4.255L34 29.295z"/>
    <path fill="#D9D8DD" d="M26.575 29.295l3.712 2.127v-4.255l-3.712-2.127v4.255z"/>
    <path stroke="#3F3D56" d="M33.902 25.137l-3.647-2.117-3.68 2.117v4.201l3.68 2.15 3.647-2.15v-4.2z"/>
</svg>
