<svg xmlns="http://www.w3.org/2000/svg" width="30" height="34" fill="none" viewBox="0 0 30 34">
    <path fill="#E2E2E6" d="M15 0L0 8.12S0 24.865 15 34C30 24.866 30 8.12 30 8.12L15 0z"/>
    <path fill="#3F3D56" d="M15 4L3.46 10.209S3.461 23.015 15 30c11.538-6.985 11.538-19.791 11.538-19.791L15 4z"/>
    <path fill="#836946" d="M15 6l-9.231 5.015s0 10.343 9.23 15.985c9.232-5.642 9.232-15.985 9.232-15.985L15 6z"/>
    <path fill="#E2E2E6" fill-rule="evenodd" d="M14.996 11l3.403 1.123c.114.037.179.169.145.294-.035.125-.155.195-.27.158l-3.278-1.082-3.268 1.082c-.114.037-.235-.033-.27-.158-.034-.125.03-.257.145-.294L14.996 11zm-4.546 2.607c-.04.715-.034 1.863.26 3.139.422 1.842 1.44 3.954 3.777 5.429l-2.323-4.918-1.714-3.65zm5.057 8.567c2.337-1.475 3.356-3.586 3.78-5.428.295-1.275.304-2.422.264-3.137l-1.713 3.649-2.331 4.916zm-.51.05l2.294-4.838h-4.58l2.286 4.837zm-2.51-5.31l-1.97-4.2c-.043-.091-.13-.14-.216-.133-.093.008-.184.082-.203.201-.036.226-.288 1.986.192 4.079.483 2.101 1.705 4.54 4.612 6.088l.094.051.095-.05c2.906-1.55 4.131-3.987 4.616-6.089.482-2.093.232-3.852.197-4.078-.02-.12-.11-.194-.203-.202-.086-.007-.173.042-.216.133l-1.97 4.2h-5.027z" clip-rule="evenodd"/>
</svg>
