<svg width="20" height="17" viewBox="0 0 20 17" fill="none" xmlns="http://www.w3.org/2000/svg">
<path opacity="0.8" fill-rule="evenodd" clip-rule="evenodd" d="M15.32 16.4728C15.5883 16.6627 15.9341 16.7101 16.2425 16.5935C16.5508 16.4761 16.7775 16.2129 16.8458 15.894C17.5699 12.4927 19.3266 3.88363 19.9857 0.789651C20.0357 0.556457 19.9524 0.314102 19.7691 0.158362C19.5857 0.00262201 19.3316 -0.0423512 19.1049 0.0417652C15.6108 1.33433 4.85022 5.36941 0.451988 6.99594C0.172828 7.09921 -0.00883492 7.36738 0.000331536 7.66138C0.0103313 7.9562 0.20866 8.21188 0.494487 8.29766C2.46694 8.88731 5.05605 9.70765 5.05605 9.70765C5.05605 9.70765 6.26602 13.3596 6.89684 15.2169C6.97601 15.4501 7.1585 15.6333 7.39933 15.6966C7.63932 15.759 7.89599 15.6932 8.07515 15.5242C9.08846 14.5681 10.6551 13.0898 10.6551 13.0898C10.6551 13.0898 13.6317 15.271 15.32 16.4728ZM6.14519 9.24626L7.54433 13.8585L7.85515 10.9377C7.85515 10.9377 13.2609 6.06483 16.3425 3.28732C16.4325 3.20571 16.445 3.06912 16.37 2.97335C16.2958 2.87757 16.1591 2.85508 16.0566 2.92004C12.485 5.19951 6.14519 9.24626 6.14519 9.24626Z" fill="white"/>
</svg>
