<svg width="20" height="17" viewBox="0 0 20 17" fill="none" xmlns="http://www.w3.org/2000/svg">
<path opacity="0.8" d="M20 1.95075C19.2483 2.27684 18.4534 2.49241 17.64 2.59075C18.4982 2.07807 19.1413 1.27153 19.45 0.320747C18.6436 0.80081 17.7608 1.13904 16.84 1.32075C15.5742 -0.0519702 13.5407 -0.395995 11.8938 0.483936C10.2469 1.36387 9.40252 3.24546 9.84 5.06075C6.54236 4.89395 3.47072 3.33451 1.39 0.770747C1.02914 1.40092 0.839519 2.11457 0.84 2.84075C0.837401 4.21046 1.52061 5.49054 2.66 6.25075C2.00798 6.23301 1.36989 6.05805 0.8 5.74075V5.79075C0.810075 7.73873 2.18943 9.41067 4.1 9.79075C3.74326 9.89931 3.37287 9.95655 3 9.96075C2.74189 9.95773 2.48442 9.93433 2.23 9.89075C2.77098 11.5569 4.30856 12.697 6.06 12.7307C4.6172 13.866 2.83588 14.4856 1 14.4907C0.665735 14.4918 0.331736 14.4718 0 14.4307C1.87443 15.641 4.05881 16.2835 6.29 16.2807C9.40026 16.313 12.393 15.0938 14.5952 12.8972C16.7974 10.7007 18.0243 7.71108 18 4.60075C18 4.43075 18 4.25075 18 4.07075C18.7847 3.48556 19.4615 2.76817 20 1.95075Z" fill="white"/>
</svg>
