<svg width="20" height="18" viewBox="0 0 20 18" fill="none" xmlns="http://www.w3.org/2000/svg">
<path opacity="0.8" fill-rule="evenodd" clip-rule="evenodd" d="M17.9183 15.2709C19.1883 14.35 20 12.9892 20 11.4759C20 8.70418 17.3025 6.45668 13.9758 6.45668C10.6492 6.45668 7.95167 8.70418 7.95167 11.4759C7.95167 14.2484 10.6492 16.4959 13.9758 16.4959C14.6633 16.4959 15.3267 16.3984 15.9425 16.2209L16.1192 16.1942C16.235 16.1942 16.34 16.23 16.4392 16.2867L17.7583 17.0484L17.8742 17.0858C17.985 17.0858 18.075 16.9959 18.075 16.885L18.0425 16.7383L17.7708 15.7258L17.75 15.5975C17.75 15.4625 17.8167 15.3434 17.9183 15.2709ZM7.22917 0.914185C3.23667 0.914185 0 3.61085 0 6.93835C0 8.75335 0.973333 10.3875 2.4975 11.4917C2.62 11.5784 2.7 11.7217 2.7 11.8842L2.675 12.0375L2.34917 13.2525L2.31 13.4284C2.31 13.5617 2.41833 13.67 2.55083 13.67L2.69083 13.625L4.27333 12.7109C4.39167 12.6425 4.5175 12.6 4.65667 12.6L4.86917 12.6317C5.6075 12.8442 6.40417 12.9625 7.22917 12.9625L7.62583 12.9525C7.46917 12.4825 7.38333 11.9875 7.38333 11.4767C7.38333 8.44252 10.335 5.98252 13.9758 5.98252L14.3683 5.99252C13.8242 3.11502 10.835 0.914185 7.22917 0.914185ZM11.9675 10.6734C11.5242 10.6734 11.165 10.3134 11.165 9.87002C11.165 9.42585 11.5242 9.06668 11.9675 9.06668C12.4117 9.06668 12.7708 9.42585 12.7708 9.87002C12.7708 10.3134 12.4117 10.6734 11.9675 10.6734ZM15.9842 10.6734C15.54 10.6734 15.1808 10.3134 15.1808 9.87002C15.1808 9.42585 15.54 9.06668 15.9842 9.06668C16.4275 9.06668 16.7867 9.42585 16.7867 9.87002C16.7867 10.3134 16.4275 10.6734 15.9842 10.6734ZM4.81917 5.97418C4.28667 5.97418 3.85583 5.54252 3.85583 5.01085C3.85583 4.47835 4.28667 4.04668 4.81917 4.04668C5.35167 4.04668 5.78333 4.47835 5.78333 5.01085C5.78333 5.54252 5.35167 5.97418 4.81917 5.97418ZM9.63833 5.97418C9.10583 5.97418 8.675 5.54252 8.675 5.01085C8.675 4.47835 9.10583 4.04668 9.63833 4.04668C10.1708 4.04668 10.6025 4.47835 10.6025 5.01085C10.6025 5.54252 10.1708 5.97418 9.63833 5.97418Z" fill="white"/>
</svg>
